<svg width="58" height="58" viewBox="0 0 58 58" fill="none" xmlns="http://www.w3.org/2000/svg">
<path d="M53.1666 42.5503C51.2671 48.0603 45.5807 57.8163 39.7227 57.9227C35.8367 57.9976 34.5873 55.6196 30.1454 55.6196C25.706 55.6196 24.3164 57.8502 20.6431 57.9952C14.4274 58.2344 4.83325 43.9133 4.83325 31.4239C4.83325 19.952 12.8276 14.2656 19.8118 14.1617C23.5576 14.094 27.0956 16.6871 29.3794 16.6871C31.6728 16.6871 35.9696 13.5696 40.4864 14.0263C42.3762 14.1061 47.6856 14.7876 51.0931 19.7708C42.0524 25.6723 43.4613 38.0142 53.1666 42.5503ZM40.5468 0C33.7173 0.2755 28.1444 7.44092 28.9226 13.3666C35.2349 13.8572 41.2911 6.78117 40.5468 0Z" fill="#111933"/>
</svg>
