<svg width="46" height="40" viewBox="0 0 46 40" fill="none" xmlns="http://www.w3.org/2000/svg">
<path d="M11.5 0.833008L13.7444 1.22209C13.064 5.52501 15.2605 6.05017 18.9175 6.73059C21.7312 7.25387 24.9167 7.92277 24.9167 13.025V14.2497H22.6493V13.025C22.6493 10.0426 21.7292 9.55767 18.5016 8.95777C13.5508 8.03777 10.6509 6.29167 11.5 0.833008ZM46 27.6664C46 34.0144 41.0032 39.1664 34.8354 39.1664C31.9393 39.1664 29.3039 38.026 27.3202 36.1668C24.8074 33.8112 21.0373 33.9971 18.5993 36.2396C16.6252 38.0566 14.0204 39.1664 11.1646 39.1664C4.99867 39.1664 0 34.0144 0 27.6664C0 21.3184 4.99867 16.1664 11.1646 16.1664L35.2437 16.1798C41.2198 16.4021 46 21.4602 46 27.6664ZM17.25 25.7497H13.4167V21.9164H9.58333V25.7497H5.75V29.583H9.58333V33.4164H13.4167V29.583H17.25V25.7497ZM24.9167 27.6664H21.0833V29.583H24.9167V27.6664ZM32.5833 23.833C32.5833 24.891 33.4401 25.7497 34.5 25.7497C35.5599 25.7497 36.4167 24.891 36.4167 23.833C36.4167 22.775 35.5599 21.9164 34.5 21.9164C33.4401 21.9164 32.5833 22.775 32.5833 23.833ZM32.5833 27.6664C32.5833 26.6084 31.7266 25.7497 30.6667 25.7497C29.6067 25.7497 28.75 26.6084 28.75 27.6664C28.75 28.7244 29.6067 29.583 30.6667 29.583C31.7266 29.583 32.5833 28.7244 32.5833 27.6664ZM36.4167 31.4997C36.4167 30.4417 35.5599 29.583 34.5 29.583C33.4401 29.583 32.5833 30.4417 32.5833 31.4997C32.5833 32.5577 33.4401 33.4164 34.5 33.4164C35.5599 33.4164 36.4167 32.5577 36.4167 31.4997ZM40.25 27.6664C40.25 26.6084 39.3932 25.7497 38.3333 25.7497C37.2734 25.7497 36.4167 26.6084 36.4167 27.6664C36.4167 28.7244 37.2734 29.583 38.3333 29.583C39.3932 29.583 40.25 28.7244 40.25 27.6664Z" fill="#111933"/>
</svg>
