<svg width="44" height="44" viewBox="0 0 44 44" fill="none" xmlns="http://www.w3.org/2000/svg">
<path d="M21.6667 43.3334C33.6328 43.3334 43.3333 33.6329 43.3333 21.6667C43.3333 9.70056 33.6328 0 21.6667 0C9.7005 0 0 9.70056 0 21.6667C0 33.6329 9.7005 43.3334 21.6667 43.3334Z" fill="#111933"/>
<path fill-rule="evenodd" clip-rule="evenodd" d="M24.4682 21.3021L33.2481 20.8471L35.3176 13.5289L29.2607 8.7168L21.8167 15.0358L24.4682 21.3021Z" fill="url(#paint0_linear)"/>
<path fill-rule="evenodd" clip-rule="evenodd" d="M29.2798 21.6608L33.5833 20.5833L35.7246 17.3587L31.3913 13.0254L26.0298 18.4108L29.2798 21.6608Z" fill="url(#paint1_linear)"/>
<path fill-rule="evenodd" clip-rule="evenodd" d="M34.5841 10.1074C35.9742 11.5654 36.8333 13.5346 36.8333 15.7081C36.8333 20.1954 33.1956 23.8331 28.7083 23.8331C28.4879 23.8315 28.2677 23.8209 28.0482 23.8014L21.6603 29.3387C21.6513 30.1399 21.4942 30.9326 21.1969 31.6767C19.8567 35.0073 16.0702 36.6206 12.7397 35.2801C12.4766 35.1742 12.2297 35.0469 11.9886 34.9119C11.9417 34.8855 11.8952 34.8591 11.849 34.8315C11.6199 34.6957 11.4001 34.5492 11.193 34.3893C11.1862 34.384 11.1787 34.3798 11.1719 34.3745L11.1592 34.3766L20.0353 43.2527C20.5779 43.3 21.1221 43.3268 21.6667 43.3331C22.1403 43.3317 22.6139 43.3148 23.0864 43.2824C23.1586 43.2777 23.2303 43.2708 23.3022 43.2654C23.9721 43.2161 24.6394 43.1356 25.3018 43.0242C25.3364 43.0184 25.3708 43.0112 25.4054 43.0052C25.9136 42.9104 26.4182 42.7975 26.9183 42.6666C27.1788 42.6016 27.4403 42.5399 27.6969 42.4656C28.1409 42.3338 28.5805 42.1877 29.0151 42.0276C29.2547 41.9411 29.4969 41.8599 29.7324 41.7653C30.1529 41.5929 30.5678 41.4073 30.9766 41.2088C31.2142 41.0954 31.4548 40.9877 31.6875 40.866C32.0662 40.6634 32.4387 40.4496 32.8047 40.2249C33.0557 40.0739 33.3116 39.9307 33.5558 39.77C33.9072 39.5326 34.2515 39.2849 34.5884 39.0273C34.8119 38.8607 35.0424 38.7029 35.2591 38.528C35.5957 38.2502 35.9238 37.9623 36.243 37.6647C36.449 37.4769 36.6623 37.2973 36.8608 37.1019C37.1718 36.7888 37.4731 36.4663 37.7643 36.1349C37.9414 35.938 38.1277 35.7499 38.2975 35.5467C38.6238 35.1475 38.9358 34.7367 39.2327 34.3152C39.3436 34.1615 39.4665 34.017 39.5734 33.8603C41.608 30.8741 42.8635 27.4263 43.2254 23.831C43.2255 23.8303 43.2254 23.8296 43.2254 23.8289C43.2254 23.8268 43.2254 23.8247 43.2254 23.8226C43.2972 23.1061 43.3332 22.3865 43.3333 21.6665C43.3256 20.6458 43.2457 19.6269 43.0942 18.6175L34.5841 10.1074Z" fill="url(#paint2_linear)"/>
<path fill-rule="evenodd" clip-rule="evenodd" d="M12.2596 34.3486L19.1485 33.654L20.6195 25.474L13.4375 23.5586L9.3208 28.5129L12.2596 34.3486Z" fill="url(#paint3_linear)"/>
<path fill-rule="evenodd" clip-rule="evenodd" d="M14.0675 34.5277L18.371 34.0765L20.7662 30.344L17.4485 26.9248L9.93726 31.2438L14.0675 34.5277Z" fill="#556B82"/>
<path fill-rule="evenodd" clip-rule="evenodd" d="M1.91699 27.4219L16.6436 42.7176C17.7582 42.9855 18.8923 43.1645 20.0353 43.2529L11.1592 34.3768L8.9904 28.9876L1.91699 27.4219Z" fill="url(#paint4_linear)"/>
<path d="M28.7084 7.58398C24.221 7.58398 20.5834 11.2217 20.5834 15.709C20.5852 15.9273 20.5957 16.1454 20.6151 16.3628C19.218 18.0699 15.4092 22.3721 15.0757 22.757C12.4576 22.7926 10.1164 24.3957 9.13642 26.8238C7.79587 30.1542 9.40921 33.9408 12.7398 35.281C16.0702 36.6215 19.8568 35.0082 21.197 31.6776C21.4942 30.9335 21.6513 30.1408 21.6604 29.3396L28.0482 23.8023C28.2677 23.8218 28.488 23.8324 28.7084 23.834C33.1957 23.834 36.8334 20.1963 36.8334 15.709C36.8334 11.2217 33.1957 7.58398 28.7084 7.58398ZM28.7084 10.834C31.4007 10.834 33.5834 13.0166 33.5834 15.709C33.5834 18.4014 31.4007 20.584 28.7084 20.584C26.016 20.584 23.8334 18.4014 23.8334 15.709C23.8334 13.0166 26.016 10.834 28.7084 10.834ZM15.2175 24.9174C15.755 24.9237 16.2867 25.0298 16.7853 25.2305C19.0058 26.1243 20.0811 28.6491 19.1869 30.8694C18.2931 33.0898 15.7683 34.1651 13.548 33.2709C11.3275 32.3771 10.2523 29.8523 11.1465 27.632C11.8139 25.9743 13.4305 24.8963 15.2175 24.9174Z" fill="white"/>
<path d="M28.7082 19.5004C30.8022 19.5004 32.4998 17.8027 32.4998 15.7086C32.4998 13.6146 30.8022 11.917 28.7082 11.917C26.6141 11.917 24.9165 13.6146 24.9165 15.7086C24.9165 17.8027 26.6141 19.5004 28.7082 19.5004Z" fill="white"/>
<path d="M1.16154 20.1113C1.11584 20.6285 1.08972 21.1473 1.08325 21.6665C1.08738 23.6147 1.36806 25.5524 1.91691 27.4217L13.9542 32.2649C14.7539 32.5864 15.6485 32.5771 16.4413 32.239C17.2341 31.901 17.8601 31.2618 18.1817 30.4622C18.5032 29.6625 18.4939 28.7679 18.1558 27.9751C17.8177 27.1823 17.1786 26.5563 16.379 26.2347L1.16154 20.1113Z" fill="white"/>
<defs>
<linearGradient id="paint0_linear" x1="24.9853" y1="12.0246" x2="41.1096" y2="25.4438" gradientUnits="userSpaceOnUse">
<stop stop-color="#31363B" stop-opacity="0.208"/>
<stop offset="1" stop-color="#31363B" stop-opacity="0"/>
</linearGradient>
<linearGradient id="paint1_linear" x1="30.2997" y1="14.0831" x2="45.4664" y2="29.2498" gradientUnits="userSpaceOnUse">
<stop stop-color="#31363B" stop-opacity="0.208"/>
<stop offset="1" stop-color="#31363B" stop-opacity="0"/>
</linearGradient>
<linearGradient id="paint2_linear" x1="34.6667" y1="10.8329" x2="48.75" y2="24.9162" gradientUnits="userSpaceOnUse">
<stop stop-color="#111933" stop-opacity="0.208"/>
<stop offset="1" stop-color="#31363B" stop-opacity="0"/>
</linearGradient>
<linearGradient id="paint3_linear" x1="11.6516" y1="25.7413" x2="27.776" y2="39.1605" gradientUnits="userSpaceOnUse">
<stop stop-color="#111933" stop-opacity="0.208"/>
<stop offset="1" stop-color="#31363B" stop-opacity="0"/>
</linearGradient>
<linearGradient id="paint4_linear" x1="1.86875" y1="27.4038" x2="15.9521" y2="41.4871" gradientUnits="userSpaceOnUse">
<stop stop-color="#31363B" stop-opacity="0.208"/>
<stop offset="1" stop-color="#31363B" stop-opacity="0"/>
</linearGradient>
</defs>
</svg>
