<svg width="430" height="107" viewBox="0 0 430 107" fill="none" xmlns="http://www.w3.org/2000/svg">
<path d="M137.74 76.6C135.5 76.6 133.52 76.5 131.8 76.3C130.08 76.1 128.38 75.76 126.7 75.28C124.9 74.8 123.42 74.16 122.26 73.36C121.1 72.52 120.16 71.44 119.44 70.12C118.72 68.72 118.36 67.12 118.36 65.32V49.12C118.36 47.16 118.76 45.4 119.56 43.84C120.36 42.24 121.44 40.98 122.8 40.06C124.08 39.22 125.6 38.5 127.36 37.9C129.16 37.3 130.92 36.9 132.64 36.7C134.08 36.54 135.82 36.46 137.86 36.46C143.38 36.46 148.66 36.88 153.7 37.72V44.8C149.06 43.68 143.78 43.12 137.86 43.12C131.1 43.12 127.72 45.08 127.72 49V64.66C127.72 66.58 128.62 67.94 130.42 68.74C132.26 69.54 135.02 69.94 138.7 69.94C140.66 69.94 142.76 69.64 145 69.04V59.98H138.64V53.86H153.94V74.08C151.94 74.8 149.38 75.4 146.26 75.88C143.18 76.36 140.34 76.6 137.74 76.6ZM169.365 76.6C166.645 76.6 164.605 76.36 163.245 75.88C161.925 75.36 160.985 74.46 160.425 73.18C159.905 71.86 159.645 69.9 159.645 67.3C159.645 64.98 159.925 63.16 160.485 61.84C161.085 60.52 162.025 59.58 163.305 59.02C164.625 58.42 166.425 58.12 168.705 58.12H178.545V56.14C178.545 54.9 178.365 53.98 178.005 53.38C177.685 52.78 177.065 52.36 176.145 52.12C175.265 51.88 173.925 51.76 172.125 51.76C169.645 51.76 166.245 52 161.925 52.48V46.96C165.085 46.56 168.785 46.36 173.025 46.36C176.745 46.36 179.605 46.64 181.605 47.2C183.645 47.76 185.105 48.72 185.985 50.08C186.865 51.44 187.305 53.42 187.305 56.02V76H178.725V73.36C178.045 74.52 177.125 75.34 175.965 75.82C174.805 76.34 172.605 76.6 169.365 76.6ZM172.785 71.14C174.545 71.14 175.805 71.08 176.565 70.96C177.125 70.88 177.505 70.76 177.705 70.6C177.945 70.44 178.145 70.18 178.305 69.82C178.465 69.54 178.545 69.12 178.545 68.56V62.92H172.545C171.185 62.92 170.225 63.02 169.665 63.22C169.105 63.38 168.725 63.74 168.525 64.3C168.325 64.82 168.225 65.76 168.225 67.12C168.225 68.44 168.325 69.36 168.525 69.88C168.725 70.4 169.105 70.74 169.665 70.9C170.265 71.06 171.305 71.14 172.785 71.14ZM195.012 46.96H203.772V50.5C204.332 47.74 207.192 46.36 212.352 46.36C215.072 46.36 217.132 46.72 218.532 47.44C219.932 48.12 220.872 49.2 221.352 50.68C221.832 49.16 222.752 48.06 224.112 47.38C225.512 46.7 227.612 46.36 230.412 46.36C232.932 46.36 234.872 46.66 236.232 47.26C237.592 47.82 238.532 48.7 239.052 49.9C239.612 51.1 239.892 52.7 239.892 54.7V76H231.132V55.9C231.132 54.62 231.052 53.72 230.892 53.2C230.732 52.64 230.372 52.26 229.812 52.06C229.292 51.86 228.372 51.76 227.052 51.76C225.412 51.76 224.232 51.86 223.512 52.06C222.832 52.26 222.372 52.64 222.132 53.2C221.932 53.72 221.832 54.62 221.832 55.9V76H213.072V55.9C213.072 54.62 212.992 53.72 212.832 53.2C212.672 52.64 212.312 52.26 211.752 52.06C211.232 51.86 210.312 51.76 208.992 51.76C207.352 51.76 206.172 51.86 205.452 52.06C204.772 52.26 204.312 52.64 204.072 53.2C203.872 53.72 203.772 54.62 203.772 55.9V76H195.012V46.96ZM262.15 76.6C251.87 76.6 246.73 73.46 246.73 67.18V56.74C246.73 53.1 247.89 50.46 250.21 48.82C252.57 47.18 256.19 46.36 261.07 46.36C265.67 46.36 269.03 47.16 271.15 48.76C273.31 50.32 274.39 52.98 274.39 56.74V63.82H255.55V66.46C255.55 68.14 256.15 69.34 257.35 70.06C258.55 70.78 260.71 71.14 263.83 71.14C266.71 71.14 269.95 70.72 273.55 69.88V75.46C269.99 76.22 266.19 76.6 262.15 76.6ZM266.05 58.84V54.64C266.05 53.68 265.65 52.96 264.85 52.48C264.09 52 262.79 51.76 260.95 51.76C258.83 51.76 257.41 52 256.69 52.48C255.93 53 255.55 53.72 255.55 54.64V58.84H266.05ZM291.946 76.6C288.826 76.6 285.006 76.3 280.486 75.7V69.88C286.046 70.72 289.906 71.14 292.066 71.14C293.906 71.14 295.266 70.96 296.146 70.6C297.026 70.24 297.466 69.58 297.466 68.62V66.82C297.466 65.82 297.186 65.12 296.626 64.72C296.066 64.28 294.966 64.06 293.326 64.06H289.546C286.466 64.06 284.086 63.46 282.406 62.26C280.726 61.02 279.886 59.22 279.886 56.86V53.32C279.886 50.8 281.086 49.02 283.486 47.98C285.886 46.9 289.506 46.36 294.346 46.36C296.266 46.36 299.706 46.54 304.666 46.9V52.48C298.426 52 294.906 51.76 294.106 51.76C291.746 51.76 290.206 51.92 289.486 52.24C288.846 52.6 288.526 53.26 288.526 54.22V55.78C288.526 56.3 288.786 56.76 289.306 57.16C289.826 57.52 290.586 57.7 291.586 57.7H295.426C302.546 57.7 306.106 60.02 306.106 64.66V68.32C306.106 69.72 305.846 70.94 305.326 71.98C304.806 73.02 304.126 73.84 303.286 74.44C302.486 75 301.446 75.44 300.166 75.76C298.926 76.08 297.626 76.3 296.266 76.42C295.026 76.54 293.586 76.6 291.946 76.6ZM325.57 76.6C321.85 76.6 317.25 76.24 311.77 75.52V68.38C318.57 69.42 323.21 69.94 325.69 69.94C330.89 69.94 333.49 68.6 333.49 65.92V63.4C333.49 62.12 333.11 61.14 332.35 60.46C331.63 59.78 330.31 59.44 328.39 59.44H323.83C315.27 59.44 310.99 56.04 310.99 49.24V46.36C310.99 42.96 312.41 40.46 315.25 38.86C318.09 37.26 322.59 36.46 328.75 36.46C331.95 36.46 336.01 36.72 340.93 37.24V44.2C334.89 43.48 330.73 43.12 328.45 43.12C325.29 43.12 323.17 43.38 322.09 43.9C320.93 44.46 320.35 45.34 320.35 46.54V49.3C320.35 51.34 322.07 52.36 325.51 52.36H330.19C334.63 52.36 337.85 53.18 339.85 54.82C341.85 56.46 342.85 58.96 342.85 62.32V64.9C342.85 69.54 341.19 72.68 337.87 74.32C336.27 75.16 334.49 75.74 332.53 76.06C330.61 76.42 328.29 76.6 325.57 76.6ZM349.236 36.46H357.996V43.54H349.236V36.46ZM349.236 46.96H357.996V76H349.236V46.96ZM380.45 76.6C378.97 76.6 377.73 76.54 376.73 76.42C375.73 76.3 374.73 76.06 373.73 75.7C372.61 75.34 371.69 74.84 370.97 74.2C370.29 73.56 369.73 72.68 369.29 71.56C368.81 70.4 368.57 69.06 368.57 67.54V52.36H362.69V46.96H368.57V38.56H377.33V46.96H385.31V52.36H377.33V66.04C377.33 67.44 377.45 68.5 377.69 69.22C377.93 69.9 378.39 70.4 379.07 70.72C379.75 71 380.79 71.14 382.19 71.14C382.75 71.14 383.79 71.04 385.31 70.84V76.3C383.43 76.5 381.81 76.6 380.45 76.6ZM404.943 76.6C394.663 76.6 389.523 73.46 389.523 67.18V56.74C389.523 53.1 390.683 50.46 393.003 48.82C395.363 47.18 398.983 46.36 403.863 46.36C408.463 46.36 411.823 47.16 413.943 48.76C416.103 50.32 417.183 52.98 417.183 56.74V63.82H398.343V66.46C398.343 68.14 398.943 69.34 400.143 70.06C401.343 70.78 403.503 71.14 406.623 71.14C409.503 71.14 412.743 70.72 416.343 69.88V75.46C412.783 76.22 408.983 76.6 404.943 76.6ZM408.843 58.84V54.64C408.843 53.68 408.443 52.96 407.643 52.48C406.883 52 405.583 51.76 403.743 51.76C401.623 51.76 400.203 52 399.483 52.48C398.723 53 398.343 53.72 398.343 54.64V58.84H408.843Z" fill="#F0F0F0"/>
<path d="M9.83247 34.5589C9.57947 34.5587 9.33096 34.4921 9.11176 34.3658C8.89255 34.2394 8.71034 34.0578 8.5833 33.839C8.45627 33.6202 8.38887 33.3719 8.38783 33.1189C8.38679 32.8659 8.45216 32.6171 8.57739 32.3973C9.31371 31.1038 10.1283 29.8565 11.0167 28.6624C11.2468 28.3556 11.5893 28.1528 11.969 28.0985C12.3486 28.0443 12.7342 28.1431 13.041 28.3732C13.3478 28.6033 13.5506 28.9458 13.6049 29.3254C13.6591 29.7051 13.5603 30.0907 13.3302 30.3975C12.5137 31.4968 11.7652 32.6451 11.089 33.836C10.9617 34.0564 10.7785 34.2394 10.5579 34.3663C10.3373 34.4932 10.087 34.5597 9.83247 34.5589V34.5589Z" fill="#F0F0F0"/>
<path d="M44.9688 95.576C38.5397 95.5676 32.1977 94.0879 26.4287 91.2504C20.6596 88.4128 15.6164 84.2926 11.6853 79.2053C7.75429 74.118 5.03964 68.1985 3.74928 61.9001C2.45892 55.6018 2.62708 49.0917 4.24088 42.8684C4.28235 42.6783 4.36174 42.4986 4.47429 42.34C4.58684 42.1813 4.73024 42.047 4.89591 41.9451C5.06158 41.8432 5.24611 41.7757 5.43845 41.7468C5.6308 41.7179 5.827 41.728 6.01533 41.7767C6.20365 41.8254 6.38022 41.9115 6.53447 42.03C6.68871 42.1485 6.81747 42.2969 6.91302 42.4663C7.00857 42.6358 7.06896 42.8227 7.09057 43.016C7.11218 43.2093 7.09457 43.405 7.03879 43.5913C4.70633 52.5242 5.60205 61.9938 9.56805 70.3309C13.5341 78.668 20.3158 85.3376 28.7179 89.164C37.12 92.9904 46.6031 93.7281 55.4959 91.2469C64.3886 88.7658 72.1201 83.2252 77.3277 75.6017L44.23 55.9368C44.0142 55.8088 43.8355 55.6268 43.7113 55.4088C43.5872 55.1908 43.5219 54.9442 43.5219 54.6933C43.5219 54.4424 43.5872 54.1958 43.7113 53.9778C43.8355 53.7598 44.0142 53.5778 44.23 53.4498L78.4367 33.1357C74.9369 27.395 70.0213 22.6493 64.1611 19.3536C58.3008 16.0578 51.6923 14.3225 44.9688 14.3138C40.8051 14.3071 36.6674 14.9706 32.7144 16.2789C32.3501 16.3999 31.9527 16.3712 31.6095 16.1991C31.2664 16.0271 31.0056 15.7257 30.8846 15.3614C30.7636 14.9971 30.7923 14.5996 30.9644 14.2565C31.1364 13.9133 31.4377 13.6526 31.8021 13.5316C36.0495 12.1271 40.4952 11.4148 44.9688 11.4219C52.4449 11.4314 59.7839 13.4291 66.2333 17.2103C72.6827 20.9914 78.0103 26.4199 81.6698 32.9391C81.8545 33.268 81.9032 33.6561 81.8057 34.0205C81.7082 34.385 81.4721 34.6968 81.1479 34.8896L47.8 54.6991L80.1053 73.8868C80.2715 73.9854 80.4162 74.1164 80.531 74.2719C80.6457 74.4275 80.728 74.6044 80.7732 74.7923C80.8183 74.9802 80.8254 75.1753 80.7939 75.366C80.7624 75.5566 80.6929 75.7391 80.5897 75.9025C76.8113 81.9366 71.5585 86.909 65.3264 90.351C59.0943 93.793 52.0883 95.5912 44.9688 95.576V95.576Z" fill="#F0F0F0"/>
<path d="M19.1169 23.5975C18.8191 23.598 18.5285 23.5067 18.2846 23.3359C18.0407 23.1651 17.8555 22.9232 17.7543 22.6432C17.653 22.3632 17.6407 22.0588 17.7189 21.7715C17.7972 21.4842 17.9622 21.2281 18.1915 21.0381C19.3506 20.0791 20.5628 19.1861 21.8222 18.3631C21.981 18.2587 22.1587 18.1866 22.3454 18.1508C22.532 18.1151 22.7238 18.1165 22.9099 18.1549C23.096 18.1933 23.2727 18.2679 23.43 18.3746C23.5872 18.4813 23.7219 18.6179 23.8263 18.7767C23.9308 18.9354 24.0029 19.1132 24.0386 19.2998C24.0744 19.4864 24.073 19.6783 24.0346 19.8644C23.9962 20.0505 23.9215 20.2272 23.8148 20.3844C23.7081 20.5416 23.5715 20.6763 23.4128 20.7808C22.2447 21.5432 21.1199 22.3702 20.0437 23.2577C19.7846 23.4768 19.4562 23.5972 19.1169 23.5975V23.5975Z" fill="#F0F0F0"/>
<path d="M50.5271 35.2461C49.3009 35.2458 48.1023 34.882 47.0829 34.2005C46.0635 33.519 45.269 32.5506 44.7999 31.4176C44.3309 30.2847 44.2083 29.0381 44.4477 27.8354C44.6871 26.6328 45.2777 25.5282 46.1449 24.6612C47.0121 23.7942 48.1168 23.2039 49.3195 22.9647C50.5222 22.7256 51.7688 22.8485 52.9016 23.3178C54.0345 23.7871 55.0028 24.5818 55.684 25.6014C56.3652 26.621 56.7288 27.8197 56.7288 29.0459C56.7269 30.69 56.0728 32.2661 54.9102 33.4285C53.7475 34.5909 52.1712 35.2446 50.5271 35.2461V35.2461ZM50.5271 25.7376C49.8729 25.7379 49.2334 25.9322 48.6895 26.2959C48.1457 26.6595 47.7219 27.1763 47.4717 27.7809C47.2215 28.3854 47.1562 29.0506 47.284 29.6922C47.4118 30.3339 47.727 30.9232 48.1898 31.3858C48.6525 31.8483 49.242 32.1632 49.8837 32.2908C50.5254 32.4183 51.1905 32.3527 51.795 32.1023C52.3994 31.8518 52.916 31.4278 53.2795 30.8838C53.6429 30.3398 53.8369 29.7002 53.8369 29.0459C53.8358 28.1686 53.4866 27.3276 52.8661 26.7073C52.2456 26.0871 51.4045 25.7384 50.5271 25.7376V25.7376Z" fill="#F0F0F0"/>
<path d="M69.3533 60.1859C68.2994 60.1862 67.2691 59.874 66.3927 59.2886C65.5162 58.7033 64.8331 57.8713 64.4296 56.8977C64.0261 55.9241 63.9203 54.8527 64.1258 53.819C64.3312 52.7853 64.8386 51.8358 65.5837 51.0904C66.3288 50.3451 67.2782 49.8375 68.3118 49.6318C69.3455 49.4261 70.4169 49.5315 71.3906 49.9348C72.3643 50.338 73.1966 51.0209 73.7821 51.8972C74.3677 52.7735 74.6802 53.8037 74.6802 54.8576C74.6783 56.2699 74.1165 57.6239 73.118 58.6227C72.1194 59.6215 70.7656 60.1836 69.3533 60.1859V60.1859ZM69.3533 52.4226C68.8713 52.4224 68.4001 52.565 67.9992 52.8326C67.5983 53.1003 67.2858 53.4808 67.1012 53.926C66.9166 54.3713 66.8682 54.8613 66.9622 55.334C67.0562 55.8068 67.2882 56.241 67.6291 56.5819C67.9699 56.9227 68.4042 57.1548 68.8769 57.2487C69.3497 57.3427 69.8397 57.2943 70.2849 57.1097C70.7302 56.9252 71.1107 56.6126 71.3783 56.2118C71.6459 55.8109 71.7886 55.3396 71.7883 54.8576C71.7871 54.2122 71.5302 53.5935 71.0738 53.1371C70.6174 52.6807 69.9988 52.4238 69.3533 52.4226V52.4226Z" fill="#F0F0F0"/>
<path d="M84.0673 60.1859C83.0134 60.1862 81.9831 59.874 81.1067 59.2886C80.2302 58.7033 79.5471 57.8713 79.1436 56.8977C78.7401 55.9241 78.6343 54.8527 78.8398 53.819C79.0452 52.7853 79.5525 51.8358 80.2977 51.0904C81.0428 50.3451 81.9922 49.8375 83.0258 49.6318C84.0595 49.4261 85.1309 49.5315 86.1046 49.9348C87.0783 50.338 87.9105 51.0209 88.4961 51.8972C89.0816 52.7735 89.3942 53.8037 89.3942 54.8576C89.393 56.2702 88.8315 57.6246 87.8328 58.6235C86.8341 59.6225 85.4799 60.1844 84.0673 60.1859V60.1859ZM84.0673 52.4226C83.5853 52.4224 83.114 52.565 82.7132 52.8326C82.3123 53.1003 81.9998 53.4808 81.8152 53.926C81.6306 54.3713 81.5822 54.8613 81.6762 55.334C81.7701 55.8068 82.0022 56.241 82.343 56.5819C82.6839 56.9227 83.1181 57.1548 83.5909 57.2487C84.0636 57.3427 84.5536 57.2943 84.9989 57.1097C85.4442 56.9252 85.8247 56.6126 86.0923 56.2118C86.3599 55.8109 86.5026 55.3396 86.5023 54.8576C86.5015 54.2121 86.2447 53.5932 85.7882 53.1367C85.3318 52.6802 84.7129 52.4234 84.0673 52.4226V52.4226Z" fill="#F0F0F0"/>
<path d="M98.7799 60.1859C97.726 60.1859 96.6958 59.8734 95.8196 59.2879C94.9434 58.7024 94.2604 57.8703 93.8571 56.8967C93.4539 55.923 93.3483 54.8517 93.5539 53.8181C93.7595 52.7845 94.267 51.8351 95.0122 51.0899C95.7573 50.3447 96.7068 49.8373 97.7404 49.6317C98.7739 49.4261 99.8453 49.5316 100.819 49.9349C101.793 50.3382 102.625 51.0211 103.21 51.8974C103.796 52.7736 104.108 53.8038 104.108 54.8576C104.107 56.2704 103.545 57.625 102.546 58.624C101.547 59.623 100.193 60.1848 98.7799 60.1859V60.1859ZM98.7799 52.4226C98.2979 52.4226 97.8268 52.5656 97.4261 52.8333C97.0254 53.1011 96.7131 53.4817 96.5288 53.927C96.3444 54.3723 96.2962 54.8622 96.3904 55.3349C96.4845 55.8076 96.7167 56.2417 97.0576 56.5824C97.3984 56.923 97.8327 57.155 98.3054 57.2488C98.7781 57.3427 99.2681 57.2942 99.7132 57.1096C100.158 56.925 100.539 56.6125 100.806 56.2116C101.074 55.8107 101.217 55.3395 101.216 54.8576C101.216 54.2118 100.959 53.5927 100.502 53.1362C100.045 52.6796 99.4257 52.423 98.7799 52.4226V52.4226Z" fill="#F0F0F0"/>
</svg>
