<svg id="Icons" height="512" viewBox="0 0 74 74" width="512" xmlns="http://www.w3.org/2000/svg"><path d="m6.8 23.9a1 1 0 0 1 -.868-1.495 25.283 25.283 0 0 1 1.687-2.583 1 1 0 0 1 1.6 1.2 23.2 23.2 0 0 0 -1.55 2.378 1 1 0 0 1 -.869.5z"/><path d="m31.1 66.1a29.138 29.138 0 0 1 -28.167-36.452 1 1 0 1 1 1.935.5 27.107 27.107 0 0 0 48.611 22.138l-22.89-13.6a1 1 0 0 1 0-1.72l23.657-14.049a27.149 27.149 0 0 0 -23.146-13.017 26.836 26.836 0 0 0 -8.475 1.359 1 1 0 1 1 -.631-1.9 28.858 28.858 0 0 1 9.106-1.459 29.15 29.15 0 0 1 25.382 14.881 1 1 0 0 1 -.361 1.349l-23.063 13.7 22.342 13.27a1 1 0 0 1 .335 1.394 28.993 28.993 0 0 1 -24.635 13.606z"/><path d="m13.221 16.32a1 1 0 0 1 -.64-1.77 27.757 27.757 0 0 1 2.511-1.85 1 1 0 1 1 1.1 1.672 25.994 25.994 0 0 0 -2.33 1.713.994.994 0 0 1 -.641.235z"/><path d="m34.944 24.376a4.288 4.288 0 1 1 4.289-4.288 4.293 4.293 0 0 1 -4.289 4.288zm0-6.576a2.288 2.288 0 1 0 2.289 2.288 2.291 2.291 0 0 0 -2.289-2.288z"/><path d="m47.964 41.624a3.685 3.685 0 1 1 3.684-3.685 3.69 3.69 0 0 1 -3.684 3.685zm0-5.369a1.685 1.685 0 1 0 1.684 1.684 1.687 1.687 0 0 0 -1.684-1.684z"/><path d="m58.14 41.624a3.685 3.685 0 1 1 3.684-3.685 3.688 3.688 0 0 1 -3.684 3.685zm0-5.369a1.685 1.685 0 1 0 1.684 1.684 1.686 1.686 0 0 0 -1.684-1.684z"/><path d="m68.315 41.624a3.685 3.685 0 1 1 3.685-3.685 3.688 3.688 0 0 1 -3.685 3.685zm0-5.369a1.685 1.685 0 1 0 1.685 1.684 1.686 1.686 0 0 0 -1.685-1.684z"/></svg>